<svg width="163" height="18" viewBox="0 0 163 18" fill="none" xmlns="http://www.w3.org/2000/svg">
<path fill-rule="evenodd" clip-rule="evenodd" d="M51.6292 15.8258C51.6292 16.1767 51.4528 16.3522 51.1001 16.3522H44.8861C44.736 16.3522 44.6141 16.3083 44.5203 16.2206C44.4265 16.1329 44.3796 16.0089 44.3796 15.8487C44.3796 15.7114 44.4115 15.6008 44.4753 15.5168C44.539 15.4329 44.6385 15.3643 44.7736 15.3109L45.2576 15.1621C45.3777 15.124 45.4715 15.0515 45.5391 14.9447C45.6066 14.8379 45.6404 14.6853 45.6404 14.487V7.87285C45.6404 7.76605 45.6141 7.67641 45.5616 7.60394C45.509 7.53147 45.4115 7.46472 45.2689 7.40369L44.616 7.18627C44.4434 7.10235 44.3195 7.01271 44.2445 6.91736C44.1694 6.822 44.1319 6.70566 44.1319 6.56834C44.1319 6.43102 44.1788 6.3185 44.2726 6.23077L44.3095 6.19993C44.3994 6.13276 44.5165 6.09917 44.661 6.09917H45.6488L45.6411 6.0323C45.62 5.89856 45.5672 5.77018 45.4828 5.64717C45.3702 5.48315 45.2426 5.29816 45.1 5.09218C44.9574 4.8862 44.8299 4.64018 44.7173 4.3541C44.6047 4.06802 44.5484 3.71519 44.5484 3.29561C44.5484 2.29625 44.8861 1.49714 45.5616 0.898284C46.237 0.299428 47.1976 0 48.4434 0C49.2464 0 49.9125 0.129689 50.4415 0.389065C50.9706 0.648442 51.3665 0.993643 51.6292 1.42467C51.8918 1.85569 52.0232 2.32676 52.0232 2.83789C52.0232 3.44056 51.8674 3.89256 51.556 4.1939C51.2445 4.49523 50.8449 4.6459 50.3571 4.6459C49.8168 4.6459 49.3815 4.47044 49.0513 4.11952C48.7211 3.76859 48.556 3.30324 48.556 2.72346V1.70502C48.556 1.43802 48.5034 1.24158 48.3984 1.1157C48.2933 0.989828 48.132 0.926891 47.9143 0.926891C47.6366 0.926891 47.4265 1.02225 47.2839 1.21297C47.1413 1.40369 47.07 1.67832 47.07 2.03687C47.07 2.40305 47.1545 2.74634 47.3233 3.06675C47.4922 3.38716 47.7004 3.68659 47.9481 3.96503C48.1957 4.24348 48.4434 4.51049 48.6911 4.76605C48.9387 5.02162 49.147 5.27336 49.3158 5.5213L49.3639 5.59562C49.4551 5.74415 49.5159 5.892 49.5463 6.03915L49.5566 6.09917H51.2239C51.3965 6.09917 51.5297 6.13541 51.6235 6.20788C51.7173 6.28036 51.7643 6.39288 51.7643 6.54545C51.7643 6.77432 51.6667 6.96122 51.4716 7.10617C51.2764 7.25111 50.9687 7.32359 50.5485 7.32359H49.7492V14.4526C49.7492 14.6662 49.7811 14.8303 49.8449 14.9447C49.9087 15.0591 50.0119 15.1278 50.1545 15.1507L51.1226 15.2994C51.2952 15.3223 51.4228 15.3776 51.5053 15.4654C51.5879 15.5531 51.6292 15.6732 51.6292 15.8258ZM29.4639 16.089C28.7884 16.417 28.0004 16.5811 27.0999 16.5811C26.1468 16.5811 25.2931 16.3789 24.5389 15.9746C23.7846 15.5702 23.1899 14.9847 22.7546 14.2181C22.3193 13.4514 22.1017 12.5188 22.1017 11.4202C22.1017 10.3598 22.3287 9.41195 22.7828 8.57661C23.2368 7.74126 23.8691 7.08137 24.6796 6.59695C25.4901 6.11252 26.4357 5.87031 27.5164 5.87031C28.4395 5.87031 29.2181 6.00763 29.8522 6.28226C30.4864 6.5569 30.9704 6.9288 31.3044 7.39797C31.6384 7.86713 31.8054 8.39161 31.8054 8.97139C31.8054 9.58169 31.6309 10.0604 31.2819 10.4075C30.9329 10.7546 30.4582 10.9282 29.8579 10.9282C29.2425 10.9282 28.7753 10.7508 28.4564 10.3961C28.1374 10.0413 27.9779 9.55499 27.9779 8.93706V8.2047C27.9779 7.8309 27.9104 7.54863 27.7753 7.35791C27.6402 7.1672 27.4488 7.07184 27.2012 7.07184C26.9535 7.07184 26.7303 7.17292 26.5314 7.37508C26.3325 7.57724 26.1787 7.88048 26.0698 8.28481C25.961 8.68913 25.9066 9.18881 25.9066 9.78385C25.9066 10.6383 26.0323 11.3554 26.2837 11.9352C26.5351 12.5149 26.8785 12.9498 27.3138 13.2397C27.749 13.5296 28.2443 13.6745 28.7997 13.6745C29.355 13.6745 29.8203 13.5925 30.1956 13.4285C30.5708 13.2645 30.8598 12.9879 31.0624 12.5989C31.175 12.4921 31.2631 12.4234 31.3269 12.3929C31.3907 12.3624 31.4526 12.3471 31.5127 12.3471C31.5877 12.3547 31.6496 12.391 31.6984 12.4558C31.7472 12.5207 31.7678 12.6217 31.7603 12.7591C31.7003 13.5067 31.4714 14.1666 31.0736 14.7387C30.6759 15.3109 30.1393 15.761 29.4639 16.089ZM40.9067 15.8601C40.0625 16.3255 39.0812 16.5582 37.963 16.5582C36.8748 16.5582 35.9198 16.3312 35.0981 15.8773C34.2763 15.4234 33.6365 14.7959 33.1787 13.9949C32.7209 13.1939 32.492 12.267 32.492 11.2142C32.492 10.2072 32.7322 9.30134 33.2125 8.4965C33.6928 7.69167 34.357 7.05277 35.205 6.57978C36.053 6.1068 37.0287 5.87031 38.1319 5.87031C39.2276 5.87031 40.1844 6.09917 41.0024 6.5569C41.8204 7.01462 42.4584 7.64781 42.9161 8.45645C43.3739 9.2651 43.6028 10.1996 43.6028 11.26C43.6028 12.267 43.3646 13.1691 42.888 13.9663C42.4114 14.7635 41.751 15.3948 40.9067 15.8601ZM38.8185 15.3681C38.5859 15.4139 38.3589 15.3109 38.1375 15.0591C37.9161 14.8074 37.706 14.384 37.5071 13.7889C37.3082 13.1939 37.1187 12.412 36.9386 11.4431C36.766 10.4743 36.6684 9.67705 36.6459 9.05149C36.6234 8.42594 36.6684 7.95296 36.781 7.63255C36.8936 7.31214 37.0662 7.12524 37.2988 7.07184C37.5315 7.02606 37.7585 7.12905 37.9799 7.3808C38.2013 7.63255 38.4133 8.05594 38.6159 8.65099C38.8185 9.24603 39.0099 10.028 39.19 10.9968C39.3701 11.9657 39.4696 12.7648 39.4883 13.3942C39.5071 14.0235 39.4583 14.4984 39.342 14.8188C39.2257 15.1392 39.0512 15.3223 38.8185 15.3681ZM58.9576 16.3522C59.3103 16.3522 59.4866 16.1767 59.4866 15.8258C59.4866 15.6732 59.4454 15.5531 59.3628 15.4654C59.2803 15.3776 59.1527 15.3223 58.9801 15.2994L58.012 15.1507C57.8694 15.1278 57.7662 15.0591 57.7024 14.9447C57.6386 14.8303 57.6067 14.6662 57.6067 14.4526V7.32359H58.406C58.8262 7.32359 59.1339 7.25111 59.329 7.10617C59.5242 6.96122 59.6217 6.77432 59.6217 6.54545C59.6217 6.39288 59.5748 6.28036 59.481 6.20788C59.3872 6.13541 59.254 6.09917 59.0814 6.09917H57.4141L57.4038 6.03915C57.3734 5.892 57.3126 5.74415 57.2214 5.59562L57.1733 5.5213C57.0044 5.27336 56.7962 5.02162 56.5485 4.76605C56.3009 4.51049 56.0532 4.24348 55.8056 3.96503C55.5579 3.68659 55.3497 3.38716 55.1808 3.06675C55.0119 2.74634 54.9275 2.40305 54.9275 2.03687C54.9275 1.67832 54.9988 1.40369 55.1414 1.21297C55.284 1.02225 55.4941 0.926891 55.7718 0.926891C55.9894 0.926891 56.1508 0.989828 56.2559 1.1157C56.3609 1.24158 56.4134 1.43802 56.4134 1.70502V2.72346C56.4134 3.30324 56.5786 3.76859 56.9088 4.11952C57.239 4.47044 57.6742 4.6459 58.2146 4.6459C58.7024 4.6459 59.102 4.49523 59.4135 4.1939C59.7249 3.89256 59.8806 3.44056 59.8806 2.83789C59.8806 2.32676 59.7493 1.85569 59.4866 1.42467C59.224 0.993643 58.8281 0.648442 58.299 0.389065C57.7699 0.129689 57.1039 0 56.3009 0C55.0551 0 54.0945 0.299428 53.4191 0.898284C52.7436 1.49714 52.4059 2.29625 52.4059 3.29561C52.4059 3.71519 52.4622 4.06802 52.5748 4.3541C52.6873 4.64018 52.8149 4.8862 52.9575 5.09218C53.1001 5.29816 53.2277 5.48315 53.3403 5.64717C53.4247 5.77018 53.4774 5.89856 53.4986 6.0323L53.5063 6.09917H52.5185C52.374 6.09917 52.2568 6.13276 52.167 6.19993L52.1301 6.23077C52.0363 6.3185 51.9894 6.43102 51.9894 6.56834C51.9894 6.70566 52.0269 6.822 52.102 6.91736C52.177 7.01271 52.3008 7.10235 52.4735 7.18627L53.1264 7.40369C53.269 7.46472 53.3665 7.53147 53.4191 7.60394C53.4716 7.67641 53.4979 7.76605 53.4979 7.87285V14.487C53.4979 14.6853 53.4641 14.8379 53.3965 14.9447C53.329 15.0515 53.2352 15.124 53.1151 15.1621L52.6311 15.3109C52.496 15.3643 52.3965 15.4329 52.3327 15.5168C52.2689 15.6008 52.2371 15.7114 52.2371 15.8487C52.2371 16.0089 52.284 16.1329 52.3778 16.2206C52.4716 16.3083 52.5935 16.3522 52.7436 16.3522H58.9576ZM67.7719 16.0203C67.0439 16.3942 66.2034 16.5811 65.2503 16.5811C64.1996 16.5811 63.2766 16.3617 62.481 15.9231C61.6855 15.4844 61.0645 14.8703 60.618 14.0807C60.1715 13.2912 59.9482 12.3776 59.9482 11.3401C59.9482 10.2492 60.164 9.29371 60.5955 8.47362C61.027 7.65353 61.6518 7.01462 62.4698 6.5569C63.2878 6.09917 64.2709 5.87031 65.4192 5.87031C66.3948 5.87031 67.2353 6.06294 67.9408 6.44819C68.6462 6.83344 69.1884 7.35601 69.5674 8.01589C69.9464 8.67578 70.1359 9.41004 70.1359 10.2187C70.1359 10.5696 70.0421 10.8462 69.8545 11.0483L69.8097 11.0932C69.6248 11.2654 69.3695 11.3516 69.044 11.3516H63.8979L63.9089 11.4044C64.0455 12.0326 64.2787 12.5357 64.6086 12.9135C65.1715 13.5582 65.922 13.8805 66.8601 13.8805C67.4604 13.8805 67.9914 13.7432 68.453 13.4685C68.9145 13.1939 69.2241 12.8125 69.3817 12.3242C69.4717 12.225 69.5524 12.1583 69.6237 12.124C69.695 12.0896 69.7569 12.0725 69.8094 12.0725C69.8845 12.0725 69.9483 12.103 70.0008 12.164C70.0533 12.225 70.0796 12.328 70.0796 12.473C70.0796 13.2206 69.877 13.9053 69.4717 14.527C69.0665 15.1488 68.4999 15.6465 67.7719 16.0203ZM63.7804 10.4343C63.7697 10.2587 63.7644 10.0762 63.7644 9.88684C63.7644 9.16974 63.8169 8.60521 63.922 8.19326C64.027 7.78131 64.1621 7.48951 64.3272 7.31786C64.4923 7.14622 64.6762 7.06039 64.8788 7.06039C65.1415 7.06039 65.3873 7.28544 65.6162 7.73554C65.8451 8.18563 65.9595 8.93325 65.9595 9.97839C65.9595 10.2988 65.8169 10.459 65.5317 10.459H63.7819L63.7804 10.4343ZM78.5337 16.0203C77.8058 16.3942 76.9652 16.5811 76.0121 16.5811C74.9615 16.5811 74.0384 16.3617 73.2429 15.9231C72.4474 15.4844 71.8263 14.8703 71.3798 14.0807C70.9333 13.2912 70.71 12.3776 70.71 11.3401C70.71 10.2492 70.9258 9.29371 71.3573 8.47362C71.7888 7.65353 72.4136 7.01462 73.2316 6.5569C74.0496 6.09917 75.0328 5.87031 76.181 5.87031C77.1566 5.87031 77.9971 6.06294 78.7026 6.44819C79.408 6.83344 79.9502 7.35601 80.3292 8.01589C80.7082 8.67578 80.8977 9.41004 80.8977 10.2187C80.8977 10.5696 80.8039 10.8462 80.6163 11.0483L80.5715 11.0932C80.3866 11.2654 80.1314 11.3516 79.8058 11.3516H74.6597L74.6707 11.4044C74.8073 12.0326 75.0405 12.5357 75.3705 12.9135C75.9333 13.5582 76.6838 13.8805 77.6219 13.8805C78.2223 13.8805 78.7532 13.7432 79.2148 13.4685C79.6763 13.1939 79.9859 12.8125 80.1435 12.3242C80.2336 12.225 80.3142 12.1583 80.3855 12.124C80.4568 12.0896 80.5187 12.0725 80.5713 12.0725C80.6463 12.0725 80.7101 12.103 80.7626 12.164C80.8152 12.225 80.8414 12.328 80.8414 12.473C80.8414 13.2206 80.6388 13.9053 80.2336 14.527C79.8283 15.1488 79.2617 15.6465 78.5337 16.0203ZM74.5422 10.4343C74.5315 10.2587 74.5262 10.0762 74.5262 9.88684C74.5262 9.16974 74.5787 8.60521 74.6838 8.19326C74.7888 7.78131 74.9239 7.48951 75.089 7.31786C75.2541 7.14622 75.438 7.06039 75.6406 7.06039C75.9033 7.06039 76.1491 7.28544 76.378 7.73554C76.6069 8.18563 76.7213 8.93325 76.7213 9.97839C76.7213 10.2988 76.5787 10.459 76.2936 10.459H74.5437L74.5422 10.4343ZM88.1304 16.2092C88.0366 16.3045 87.8997 16.3522 87.7195 16.3522H82.091C81.9259 16.3522 81.7964 16.3064 81.7026 16.2149C81.6088 16.1233 81.5619 15.9975 81.5619 15.8373C81.5619 15.7152 81.59 15.6141 81.6463 15.534C81.7026 15.4539 81.7795 15.3795 81.8771 15.3109L82.136 15.2079C82.2336 15.1621 82.3011 15.0896 82.3386 14.9905C82.3762 14.8913 82.3949 14.7273 82.3949 14.4984V8.68532C82.3949 8.50222 82.3743 8.37063 82.333 8.29053C82.2917 8.21043 82.2223 8.14749 82.1247 8.10172L81.8321 8.06739C81.727 8.00636 81.6501 7.94151 81.6013 7.87285C81.5525 7.8042 81.5281 7.71647 81.5281 7.60966C81.5281 7.4876 81.5656 7.37889 81.6407 7.28354C81.7157 7.18818 81.8433 7.10617 82.0234 7.03751L85.2205 6.11062C85.4081 6.03433 85.5657 5.98093 85.6933 5.95041C85.8208 5.9199 85.9297 5.90464 86.0197 5.90464C86.1473 5.90464 86.243 5.95041 86.3068 6.04196L86.3273 6.07516C86.3799 6.17085 86.4162 6.3238 86.4362 6.53401L86.5219 8.31214L86.5415 8.2465C86.5795 8.12264 86.6213 8.00381 86.667 7.89002C86.9409 7.20725 87.303 6.69994 87.7533 6.36809C88.2036 6.03624 88.6952 5.87031 89.228 5.87031C89.8734 5.87031 90.3687 6.08773 90.7139 6.52257C91.0592 6.95741 91.2318 7.61729 91.2318 8.50222C91.2318 9.37953 91.0517 10.0242 90.6914 10.4361C90.3312 10.8481 89.8659 11.054 89.2955 11.054C88.7402 11.054 88.3293 10.9129 88.0629 10.6306C87.7965 10.3484 87.6558 9.94787 87.6407 9.42912L87.6295 8.97139C87.622 8.79593 87.5882 8.65861 87.5282 8.55944C87.4681 8.46027 87.3706 8.41068 87.2355 8.41068C87.1004 8.41068 86.9822 8.48125 86.8809 8.62238C86.7796 8.76351 86.7027 8.97902 86.6501 9.26891C86.5976 9.5588 86.5713 9.9288 86.5713 10.3789V14.4069C86.5713 14.6205 86.6051 14.7902 86.6726 14.9161C86.7402 15.042 86.8452 15.1202 86.9878 15.1507L87.8321 15.3223C87.9897 15.3452 88.1023 15.4043 88.1698 15.4997C88.2374 15.595 88.2711 15.7076 88.2711 15.8373C88.2711 15.9898 88.2242 16.1138 88.1304 16.2092ZM97.1305 16.5582C98.2487 16.5582 99.23 16.3255 100.074 15.8601C100.919 15.3948 101.579 14.7635 102.056 13.9663C102.532 13.1691 102.77 12.267 102.77 11.26C102.77 10.1996 102.541 9.2651 102.084 8.45645C101.626 7.64781 100.988 7.01462 100.17 6.5569C99.3519 6.09917 98.3951 5.87031 97.2994 5.87031C96.1962 5.87031 95.2206 6.1068 94.3725 6.57978C93.5245 7.05277 92.8603 7.69167 92.38 8.4965C91.8997 9.30134 91.6595 10.2072 91.6595 11.2142C91.6595 12.267 91.8884 13.1939 92.3462 13.9949C92.804 14.7959 93.4438 15.4234 94.2656 15.8773C95.0873 16.3312 96.0423 16.5582 97.1305 16.5582ZM97.305 15.0591C97.5264 15.3109 97.7534 15.4139 97.9861 15.3681C98.2187 15.3223 98.3932 15.1392 98.5095 14.8188C98.6258 14.4984 98.6746 14.0235 98.6559 13.3942C98.6371 12.7648 98.5377 11.9657 98.3575 10.9968C98.1774 10.028 97.9861 9.24603 97.7834 8.65099C97.5808 8.05594 97.3688 7.63255 97.1474 7.3808C96.926 7.12905 96.699 7.02606 96.4663 7.07184C96.2337 7.12524 96.0611 7.31214 95.9485 7.63255C95.8359 7.95296 95.7909 8.42594 95.8134 9.05149C95.8359 9.67705 95.9335 10.4743 96.1061 11.4431C96.2862 12.412 96.4757 13.1939 96.6746 13.7889C96.8735 14.384 97.0836 14.8074 97.305 15.0591ZM111.697 16.5811C112.328 16.5811 112.845 16.4647 113.251 16.232C113.656 15.9994 113.958 15.7228 114.157 15.4024C114.356 15.082 114.455 14.7883 114.455 14.5213C114.455 14.4069 114.431 14.3115 114.382 14.2352C114.333 14.1589 114.268 14.1208 114.185 14.1208C114.148 14.1208 114.114 14.1284 114.084 14.1437C114.054 14.1589 114.027 14.1818 114.005 14.2123C113.967 14.3497 113.909 14.445 113.83 14.4984C113.752 14.5518 113.667 14.5785 113.577 14.5785C113.45 14.5785 113.354 14.5346 113.29 14.4469C113.226 14.3592 113.194 14.2428 113.194 14.0979V9.04005C113.194 8.03306 112.855 7.25302 112.176 6.69994C111.496 6.14685 110.433 5.87031 108.984 5.87031C107.859 5.87031 106.919 6.01144 106.164 6.29371C105.41 6.57597 104.844 6.93643 104.465 7.37508C104.086 7.81373 103.896 8.26192 103.896 8.71964C103.896 9.20788 104.037 9.57978 104.318 9.83535C104.6 10.0909 105.007 10.2187 105.54 10.2187C106.193 10.2187 106.707 10.0413 107.082 9.68659C107.457 9.33185 107.645 8.87222 107.645 8.30769V7.43802C107.645 7.22441 107.71 7.05849 107.842 6.94024C107.973 6.822 108.136 6.76287 108.331 6.76287C108.541 6.76287 108.708 6.84107 108.832 6.99746C108.956 7.15385 109.018 7.36554 109.018 7.63255L109.018 10.9682L108.958 10.9552C108.777 10.9201 108.567 10.9001 108.329 10.8951L108.208 10.8938C106.594 10.8938 105.391 11.1685 104.6 11.7177C103.808 12.267 103.412 13.0337 103.412 14.0178C103.412 14.7654 103.684 15.3795 104.228 15.8601C104.772 16.3407 105.495 16.5811 106.395 16.5811C107.071 16.5811 107.701 16.4418 108.286 16.1634C108.725 15.9545 109.082 15.6803 109.356 15.3406L109.372 15.3207L109.389 15.3719C109.475 15.6193 109.634 15.8409 109.864 16.0367L109.936 16.0947C110.352 16.4189 110.939 16.5811 111.697 16.5811ZM107.819 14.424C108.003 14.672 108.245 14.7959 108.545 14.7959L108.61 14.7937C108.738 14.7848 108.861 14.749 108.981 14.6864L109.018 14.6656V11.7292L108.962 11.712C108.834 11.6777 108.684 11.6605 108.511 11.6605C108.219 11.6605 107.984 11.7978 107.808 12.0725C107.632 12.3471 107.543 12.7514 107.543 13.2854C107.543 13.7966 107.635 14.1761 107.819 14.424ZM119.634 16.6154C120.969 16.6154 121.994 16.3064 122.707 15.6885C123.42 15.0706 123.776 14.2276 123.776 13.1596C123.776 12.5111 123.656 11.9428 123.416 11.4545C123.176 10.9663 122.756 10.5334 122.155 10.1558C121.555 9.77813 120.71 9.42149 119.622 9.08582C119.217 8.95613 118.904 8.82454 118.682 8.69104C118.461 8.55753 118.309 8.41449 118.226 8.26192C118.144 8.10935 118.103 7.94533 118.103 7.76987C118.103 7.51049 118.196 7.3007 118.384 7.1405C118.572 6.98029 118.849 6.90019 119.217 6.90019C119.727 6.90019 120.21 7.07184 120.664 7.41513C121.118 7.75842 121.619 8.34584 122.166 9.17737C122.309 9.35283 122.452 9.48061 122.594 9.56071C122.737 9.64081 122.872 9.66561 122.999 9.63509C123.157 9.58932 123.255 9.48442 123.292 9.32041C123.33 9.15639 123.322 8.92181 123.27 8.61666L122.977 6.51113C122.947 6.28989 122.891 6.1335 122.808 6.04196C122.725 5.95041 122.617 5.90464 122.482 5.90464C122.362 5.90464 122.211 5.9466 122.031 6.03052C121.851 6.11443 121.673 6.20025 121.497 6.28798C121.32 6.37572 121.187 6.41958 121.097 6.41958C121.014 6.41958 120.892 6.37381 120.731 6.28226C120.57 6.19072 120.343 6.09917 120.05 6.00763C119.757 5.91608 119.378 5.87031 118.913 5.87031C118.14 5.87031 117.444 6.01144 116.825 6.29371C116.206 6.57597 115.718 6.97839 115.361 7.50095C115.005 8.02352 114.827 8.64717 114.827 9.3719C114.827 10.0127 114.96 10.5734 115.226 11.054C115.493 11.5346 115.9 11.9466 116.448 12.2899C116.996 12.6332 117.686 12.9116 118.519 13.1252C119.059 13.2702 119.474 13.417 119.763 13.5658C120.052 13.7146 120.251 13.8767 120.36 14.0521C120.468 14.2276 120.523 14.4221 120.523 14.6357C120.523 14.918 120.429 15.1507 120.241 15.3338C120.054 15.5168 119.769 15.6084 119.386 15.6084C119.026 15.6084 118.682 15.5302 118.356 15.3738C118.029 15.2174 117.694 14.9485 117.348 14.5671C117.003 14.1856 116.617 13.6631 116.189 12.9994C116.061 12.8239 115.917 12.7018 115.755 12.6332C115.594 12.5645 115.431 12.5683 115.266 12.6446C115.108 12.7057 115.007 12.8353 114.962 13.0337C114.917 13.232 114.928 13.4762 114.996 13.7661L115.345 16.0432C115.397 16.2721 115.472 16.4247 115.57 16.501C115.667 16.5772 115.772 16.6154 115.885 16.6154C116.012 16.6154 116.168 16.5734 116.352 16.4895L116.904 16.2378C117.088 16.1538 117.236 16.1119 117.348 16.1119C117.461 16.1119 117.609 16.1538 117.793 16.2378C117.977 16.3217 118.217 16.4056 118.513 16.4895C118.81 16.5734 119.183 16.6154 119.634 16.6154ZM130.305 16.1863C129.81 16.4495 129.225 16.5811 128.549 16.5811C127.408 16.5811 126.551 16.3026 125.977 15.7457C125.403 15.1888 125.116 14.3115 125.116 13.1138V7.94151C125.116 7.78131 125.101 7.65925 125.071 7.57533C125.041 7.49142 124.966 7.42276 124.846 7.36936L124.316 7.19771C124.189 7.13668 124.106 7.0623 124.069 6.97457C124.031 6.88684 124.013 6.77813 124.013 6.64844C124.013 6.48824 124.069 6.35664 124.181 6.25366C124.294 6.15067 124.433 6.09917 124.598 6.09917H125.15C125.217 6.09917 125.288 6.07247 125.363 6.01907C125.438 5.96567 125.54 5.85887 125.667 5.69867L127.75 3.94787C127.9 3.76478 128.05 3.62556 128.2 3.5302C128.35 3.43484 128.5 3.38716 128.65 3.38716C128.823 3.38716 128.958 3.44056 129.056 3.54736L129.086 3.58522C129.164 3.69221 129.202 3.84743 129.202 4.05086L129.202 6.09917H131.555C131.72 6.09917 131.848 6.13541 131.938 6.20788C132.028 6.28036 132.073 6.39288 132.073 6.54545C132.073 6.75906 131.979 6.94215 131.791 7.09472L131.749 7.12625C131.56 7.25781 131.274 7.32359 130.891 7.32359H129.202L129.202 12.5416C129.202 13.1138 129.298 13.5372 129.489 13.8118C129.681 14.0865 129.96 14.2238 130.328 14.2238C130.485 14.2238 130.632 14.1894 130.767 14.1208C130.902 14.0521 131.024 13.9625 131.133 13.8519C131.242 13.7413 131.345 13.6173 131.442 13.48C131.54 13.3427 131.634 13.2053 131.724 13.068C131.799 13.0375 131.864 13.0509 131.921 13.1081C131.977 13.1653 132.001 13.2816 131.994 13.4571C131.941 14.075 131.771 14.6186 131.482 15.0877C131.193 15.5569 130.801 15.9231 130.305 16.1863ZM137.679 16.5811C138.632 16.5811 139.472 16.3942 140.2 16.0203C140.928 15.6465 141.495 15.1488 141.9 14.527C142.305 13.9053 142.508 13.2206 142.508 12.473C142.508 12.328 142.482 12.225 142.429 12.164C142.377 12.103 142.313 12.0725 142.238 12.0725C142.185 12.0725 142.123 12.0896 142.052 12.124C141.981 12.1583 141.9 12.225 141.81 12.3242C141.652 12.8125 141.343 13.1939 140.881 13.4685C140.42 13.7432 139.889 13.8805 139.288 13.8805C138.35 13.8805 137.6 13.5582 137.037 12.9135C136.707 12.5357 136.474 12.0326 136.337 11.4044L136.326 11.3516H141.472C141.798 11.3516 142.053 11.2654 142.238 11.0932L142.283 11.0483C142.47 10.8462 142.564 10.5696 142.564 10.2187C142.564 9.41004 142.375 8.67578 141.996 8.01589C141.617 7.35601 141.075 6.83344 140.369 6.44819C139.664 6.06294 138.823 5.87031 137.848 5.87031C136.699 5.87031 135.716 6.09917 134.898 6.5569C134.08 7.01462 133.455 7.65353 133.024 8.47362C132.592 9.29371 132.377 10.2492 132.377 11.3401C132.377 12.3776 132.6 13.2912 133.046 14.0807C133.493 14.8703 134.114 15.4844 134.909 15.9231C135.705 16.3617 136.628 16.5811 137.679 16.5811ZM136.193 9.88684C136.193 10.0762 136.198 10.2587 136.209 10.4343L136.21 10.459H137.96C138.245 10.459 138.388 10.2988 138.388 9.97839C138.388 8.93325 138.273 8.18563 138.045 7.73554C137.816 7.28544 137.57 7.06039 137.307 7.06039C137.105 7.06039 136.921 7.14622 136.756 7.31786C136.591 7.48951 136.455 7.78131 136.35 8.19326C136.245 8.60521 136.193 9.16974 136.193 9.88684ZM149.386 16.3522C149.566 16.3522 149.703 16.3045 149.797 16.2092C149.891 16.1138 149.938 15.9898 149.938 15.8373C149.938 15.7076 149.904 15.595 149.836 15.4997C149.769 15.4043 149.656 15.3452 149.499 15.3223L148.654 15.1507C148.512 15.1202 148.407 15.042 148.339 14.9161C148.272 14.7902 148.238 14.6205 148.238 14.4069V10.3789C148.238 9.9288 148.264 9.5588 148.317 9.26891C148.369 8.97902 148.446 8.76351 148.547 8.62238C148.649 8.48125 148.767 8.41068 148.902 8.41068C149.037 8.41068 149.135 8.46027 149.195 8.55944C149.255 8.65861 149.289 8.79593 149.296 8.97139L149.307 9.42912C149.322 9.94787 149.463 10.3484 149.729 10.6306C149.996 10.9129 150.407 11.054 150.962 11.054C151.533 11.054 151.998 10.8481 152.358 10.4361C152.718 10.0242 152.898 9.37953 152.898 8.50222C152.898 7.61729 152.726 6.95741 152.381 6.52257C152.035 6.08773 151.54 5.87031 150.895 5.87031C150.362 5.87031 149.87 6.03624 149.42 6.36809C148.97 6.69994 148.608 7.20725 148.334 7.89002C148.288 8.00381 148.246 8.12264 148.208 8.2465L148.188 8.31246L148.103 6.53401C148.083 6.3238 148.046 6.17085 147.994 6.07516L147.973 6.04196C147.91 5.95041 147.814 5.90464 147.686 5.90464C147.596 5.90464 147.487 5.9199 147.36 5.95041C147.232 5.98093 147.075 6.03433 146.887 6.11062L143.69 7.03751C143.51 7.10617 143.382 7.18818 143.307 7.28354C143.232 7.37889 143.195 7.4876 143.195 7.60966C143.195 7.71647 143.219 7.8042 143.268 7.87285C143.317 7.94151 143.394 8.00636 143.499 8.06739L143.791 8.10172C143.889 8.14749 143.958 8.21043 144 8.29053C144.041 8.37063 144.062 8.50222 144.062 8.68532V14.4984C144.062 14.7273 144.043 14.8913 144.005 14.9905C143.968 15.0896 143.9 15.1621 143.803 15.2079L143.544 15.3109C143.446 15.3795 143.369 15.4539 143.313 15.534C143.257 15.6141 143.228 15.7152 143.228 15.8373C143.228 15.9975 143.275 16.1233 143.369 16.2149C143.463 16.3064 143.592 16.3522 143.758 16.3522H149.386ZM161.24 15.6885C160.527 16.3064 159.503 16.6154 158.167 16.6154C157.716 16.6154 157.343 16.5734 157.047 16.4895C156.75 16.4056 156.51 16.3217 156.326 16.2378C156.142 16.1538 155.994 16.1119 155.882 16.1119C155.769 16.1119 155.621 16.1538 155.437 16.2378L154.885 16.4895C154.701 16.5734 154.546 16.6154 154.418 16.6154C154.306 16.6154 154.2 16.5772 154.103 16.501C154.005 16.4247 153.93 16.2721 153.878 16.0432L153.529 13.7661C153.461 13.4762 153.45 13.232 153.495 13.0337C153.54 12.8353 153.641 12.7057 153.799 12.6446C153.964 12.5683 154.127 12.5645 154.289 12.6332C154.45 12.7018 154.594 12.8239 154.722 12.9994C155.15 13.6631 155.536 14.1856 155.882 14.5671C156.227 14.9485 156.563 15.2174 156.889 15.3738C157.215 15.5302 157.559 15.6084 157.919 15.6084C158.302 15.6084 158.587 15.5168 158.775 15.3338C158.962 15.1507 159.056 14.918 159.056 14.6357C159.056 14.4221 159.002 14.2276 158.893 14.0521C158.784 13.8767 158.585 13.7146 158.296 13.5658C158.007 13.417 157.593 13.2702 157.052 13.1252C156.219 12.9116 155.529 12.6332 154.981 12.2899C154.433 11.9466 154.026 11.5346 153.76 11.054C153.493 10.5734 153.36 10.0127 153.36 9.3719C153.36 8.64717 153.538 8.02352 153.895 7.50095C154.251 6.97839 154.739 6.57597 155.358 6.29371C155.977 6.01144 156.673 5.87031 157.446 5.87031C157.912 5.87031 158.291 5.91608 158.583 6.00763C158.876 6.09917 159.103 6.19072 159.264 6.28226C159.426 6.37381 159.548 6.41958 159.63 6.41958C159.72 6.41958 159.853 6.37572 160.03 6.28798C160.206 6.20025 160.384 6.11443 160.564 6.03052C160.745 5.9466 160.895 5.90464 161.015 5.90464C161.15 5.90464 161.259 5.95041 161.341 6.04196C161.424 6.1335 161.48 6.28989 161.51 6.51113L161.803 8.61666C161.855 8.92181 161.863 9.15639 161.825 9.32041C161.788 9.48442 161.69 9.58932 161.533 9.63509C161.405 9.66561 161.27 9.64081 161.127 9.56071C160.985 9.48061 160.842 9.35283 160.7 9.17737C160.152 8.34584 159.651 7.75842 159.197 7.41513C158.743 7.07184 158.261 6.90019 157.75 6.90019C157.382 6.90019 157.105 6.98029 156.917 7.1405C156.73 7.3007 156.636 7.51049 156.636 7.76987C156.636 7.94533 156.677 8.10935 156.76 8.26192C156.842 8.41449 156.994 8.55753 157.215 8.69104C157.437 8.82454 157.75 8.95613 158.155 9.08582C159.244 9.42149 160.088 9.77813 160.688 10.1558C161.289 10.5334 161.709 10.9663 161.949 11.4545C162.189 11.9428 162.309 12.5111 162.309 13.1596C162.309 14.2276 161.953 15.0706 161.24 15.6885Z" fill="#333D4B"/>
<path fill-rule="evenodd" clip-rule="evenodd" d="M9.3168 2.77116C6.88946 0.340086 3.29146 -0.00988125 1.29613 1.9923C-0.700227 3.99345 -0.351097 7.60008 2.07209 10.0322C2.71855 10.6802 3.46343 11.1756 4.24975 11.5307C4.50771 10.028 5.24741 8.58352 6.37043 7.39758C5.99851 7.26465 5.61726 7.1525 5.21944 7.04346C2.86359 6.39545 1.69292 4.42546 1.41942 2.11588C1.64563 2.38855 1.85158 2.67455 2.05693 2.95971C2.45536 3.51298 2.8515 4.06308 3.38884 4.50646C4.22473 5.19637 5.14225 5.46269 6.14603 5.75405C6.18479 5.7653 6.22367 5.77659 6.26269 5.78794C6.73821 5.92606 7.15157 6.13064 7.53074 6.36949C8.52737 5.63944 9.65142 5.15343 10.8117 4.953C10.4585 4.1648 9.96326 3.41917 9.3168 2.77116ZM5.21219 12.1081C5.36655 10.6034 6.09382 9.13183 7.25931 7.96355C9.68664 5.53247 13.2847 5.18147 15.28 7.18469C17.2763 9.18584 16.9282 12.7925 14.5019 15.2246C13.3365 16.3929 11.8684 17.1219 10.3673 17.2777C10.1673 17.2974 9.96947 17.3078 9.77574 17.3078C8.48489 17.3078 7.33183 16.854 6.48232 16.0024C5.50434 15.0231 5.05265 13.6399 5.21219 12.1081ZM8.76254 13.3429C9.55818 12.7343 10.4191 12.4934 11.3556 12.2369C13.7115 11.5889 14.8811 9.61888 15.1557 7.30931C14.9313 7.58046 14.7269 7.86452 14.5231 8.14773C14.1234 8.70297 13.7262 9.25494 13.1862 9.69988C12.3478 10.3909 11.4281 10.6577 10.4199 10.9502L10.3124 10.9814C8.0073 11.6522 6.86771 13.6056 6.60456 15.8788C6.83163 15.6054 7.03964 15.3215 7.24655 15.0391L7.24658 15.039C7.69576 14.426 8.13981 13.8199 8.76254 13.3429Z" fill="#0E8784"/>
</svg>
